<svg width="512" height="512" viewBox="0 0 512 512" fill="none" xmlns="http://www.w3.org/2000/svg">
<rect width="512" height="512" rx="128" fill="#0F172A"/>
<path d="M362.5 137.5C345.5 120.5 320.5 110.5 290.5 110.5H220.5C186.5 110.5 158.5 138.5 158.5 172.5C158.5 206.5 186.5 234.5 220.5 234.5H290.5C308.5 234.5 322.5 248.5 322.5 266.5C322.5 284.5 308.5 298.5 290.5 298.5H180.5" stroke="url(#paint0_linear)" stroke-width="48" stroke-linecap="round" stroke-linejoin="round"/>
<path d="M150.5 358.5C167.5 375.5 192.5 385.5 222.5 385.5H292.5C326.5 385.5 354.5 357.5 354.5 323.5C354.5 289.5 326.5 261.5 292.5 261.5H222.5C204.5 261.5 190.5 247.5 190.5 229.5C190.5 211.5 204.5 197.5 222.5 197.5H332.5" stroke="url(#paint1_linear)" stroke-width="48" stroke-linecap="round" stroke-linejoin="round"/>
<defs>
<linearGradient id="paint0_linear" x1="158.5" y1="110.5" x2="362.5" y2="298.5" gradientUnits="userSpaceOnUse">
<stop stop-color="#2563EB"/>
<stop offset="1" stop-color="#10B981"/>
</linearGradient>
<linearGradient id="paint1_linear" x1="150.5" y1="385.5" x2="354.5" y2="197.5" gradientUnits="userSpaceOnUse">
<stop stop-color="#10B981"/>
<stop offset="1" stop-color="#6366F1"/>
</linearGradient>
</defs>
</svg>
